<?xml version="1.0" encoding="utf-8"?>
<!-- Generator: Adobe Illustrator 21.0.0, SVG Export Plug-In . SVG Version: 6.00 Build 0)  -->
<svg version="1.1" id="Layer_1" xmlns="http://www.w3.org/2000/svg" xmlns:xlink="http://www.w3.org/1999/xlink" x="0px" y="0px"
	 viewBox="0 0 126 90" style="enable-background:new 0 0 126 90;" xml:space="preserve">
<style type="text/css">
	.st0{fill:#0071B8;}
	.st1{fill:#95B1DD;}
</style>
<title>Asset 1</title>
<g id="Layer_2">
	<g id="Layer_1-2">
		<g id="Foreground">
			<path class="st0" d="M1.2,8h45.4c12,0,13.7,9.8,13.7,9.8H1.2V8z"/>
			<path class="st0" d="M1.2,27.7h59.1c-0.4,1.9-1.4,3.7-2.9,5c2.9,2.4,2.9,4.9,2.9,4.9H1.2V27.7z"/>
			<path class="st0" d="M66.3,27.7h45.3c12,0,13.7,9.9,13.7,9.9H80C68.2,37.6,66.3,27.7,66.3,27.7z"/>
			<path class="st0" d="M1.2,57.2h45.4c12,0,13.7-9.8,13.7-9.8H1.2V57.2z"/>
			<path class="st1" d="M93.7,17.9H44.5c-12,0-13.8,9.8-13.8,9.8h63V17.9z"/>
			<path class="st0" d="M123.4,8.1H80c-12,0-13.7,9.8-13.7,9.8h57.1V8.1z"/>
			<path class="st1" d="M93.7,47.4H44.5c-12,0-13.8-9.8-13.8-9.8h63V47.4z"/>
			<path class="st0" d="M68.2,57.2h43.4c12,0,13.7-9.8,13.7-9.8H68.2V57.2z"/>
			<path class="st0" d="M0.6,81.6c0.1-1.5,0.1-2.7,0.1-3.6c0-0.9,0-2.6-0.1-4.8c-0.1-2.2-0.1-3.9-0.1-4.7c0-0.4,0-0.7-0.1-1.1h6.5
				c0.6,0,1.2,0,1.8,0.1c0.4,0.1,0.8,0.2,1.1,0.3c0.3,0.1,0.6,0.3,0.8,0.5c0.2,0.2,0.4,0.4,0.6,0.7c0.2,0.2,0.3,0.5,0.4,0.8
				c0.1,0.3,0.1,0.6,0.2,0.9c0,0.4,0,0.7-0.1,1.1c-0.1,0.4-0.2,0.7-0.4,1c-0.2,0.3-0.4,0.5-0.6,0.7c-0.2,0.2-0.4,0.4-0.7,0.5
				c-0.2,0.1-0.5,0.2-0.9,0.4c0.3,0.1,0.6,0.1,0.8,0.2l0.6,0.3c0.3,0.1,0.5,0.3,0.7,0.5c0.2,0.2,0.4,0.4,0.5,0.7
				c0.1,0.3,0.2,0.5,0.3,0.8c0.1,0.3,0.1,0.6,0.1,0.9c0,0.6-0.1,1.3-0.3,1.9c-0.2,0.5-0.6,1-1.1,1.3c-0.5,0.3-1.1,0.5-1.7,0.7
				c-1.3,0.2-2.7,0.2-4,0.2H2.5L0.6,81.6z M3.6,73.1h1.7c0.5,0,0.9,0,1.4-0.1C7,73,7.2,73,7.5,72.9c0.3-0.1,0.5-0.3,0.7-0.5
				c0.2-0.2,0.3-0.4,0.4-0.7c0.1-0.3,0.1-0.5,0.1-0.8c0-0.2-0.1-0.5-0.2-0.7c-0.1-0.2-0.3-0.4-0.5-0.6c-0.2-0.2-0.4-0.3-0.7-0.3
				c-0.4-0.1-0.8-0.1-1.2-0.1H3.6V73.1z M3.6,79.6H6c0.4,0,0.7,0,1.1-0.1c0.3,0,0.5-0.1,0.8-0.2l0.6-0.3c0.1-0.1,0.2-0.3,0.3-0.4
				C8.9,78.4,9,78.2,9,77.9c0.1-0.2,0.1-0.5,0.1-0.7c0-0.3-0.1-0.6-0.2-0.9c-0.1-0.2-0.3-0.4-0.5-0.6c-0.2-0.2-0.5-0.3-0.8-0.4
				c-0.4-0.1-0.9-0.1-1.3-0.1H3.7L3.6,79.6z"/>
			<path class="st0" d="M26.2,78.9c-0.1,0.8-0.2,1.6-0.3,2.5l-2.2,0.3c-0.6,0.1-1.1,0.1-1.7,0.1c-1,0-2-0.1-3-0.4
				c-1-0.3-1.9-0.8-2.7-1.4c-0.8-0.6-1.4-1.4-1.8-2.3c-0.4-1-0.6-2-0.7-3c-0.1-1.1,0.1-2.2,0.5-3.2c0.4-1,0.9-1.8,1.7-2.5
				c0.8-0.7,1.7-1.2,2.7-1.5c1.1-0.3,2.2-0.5,3.3-0.5c1.2,0,2.5,0.1,3.7,0.4c0.1,0.4,0.1,0.9,0.1,1.3l0.1,1.1
				c-0.8-0.2-1.5-0.4-2-0.5c-0.5-0.1-1-0.1-1.5-0.1c-0.7,0-1.4,0.1-2.1,0.3c-1.4,0.4-2.5,1.5-2.9,2.9c-0.3,0.7-0.4,1.5-0.3,2.2
				c0,0.9,0.3,1.7,0.7,2.5c0.4,0.7,1.1,1.4,1.8,1.8c0.9,0.5,1.9,0.7,2.9,0.7C23.8,79.5,25,79.3,26.2,78.9z"/>
			<path class="st0" d="M28.2,81.3c-0.1-0.9-0.2-1.7-0.4-2.6c1.2,0.5,2.5,0.9,3.8,0.9c0.4,0,0.8-0.1,1.2-0.2c0.4,0,0.7-0.3,0.8-0.6
				c0.2-0.2,0.3-0.5,0.2-0.8c0-0.2-0.1-0.4-0.2-0.6c-0.1-0.3-0.4-0.5-0.7-0.8s-1.2-1-2.2-1.9c-0.5-0.4-0.9-0.7-1.1-0.9
				c-0.4-0.3-0.7-0.7-1-1.1c-0.2-0.3-0.4-0.6-0.5-1c-0.1-0.3-0.2-0.7-0.2-1c0-0.7,0.1-1.3,0.5-1.9c0.4-0.6,0.9-1.1,1.6-1.4
				c0.9-0.3,1.8-0.5,2.7-0.5c1.1,0,2.3,0.1,3.4,0.4c0.1,0.7,0.2,1.6,0.3,2.5c-1-0.4-2-0.6-3.1-0.6c-0.6,0-1.2,0.2-1.7,0.5
				c-0.4,0.2-0.6,0.7-0.6,1.1c0,0.1,0,0.3,0.1,0.4c0,0.1,0.1,0.2,0.2,0.4c0.1,0.2,0.2,0.3,0.3,0.5l0.7,0.7c0.3,0.2,0.6,0.5,0.8,0.6
				l1.4,1.2c0.3,0.3,0.6,0.5,0.9,0.8l0.7,0.7c0.2,0.2,0.4,0.4,0.5,0.7c0.1,0.2,0.2,0.5,0.3,0.7c0.1,0.2,0.1,0.5,0.1,0.7
				c0,0.6-0.1,1.2-0.3,1.7c-0.2,0.5-0.6,1-1.1,1.3c-0.5,0.3-1,0.6-1.6,0.7C33.4,82,32.7,82,32.1,82c-0.5,0-1.1,0-1.6-0.1
				C29.8,81.6,29,81.4,28.2,81.3z"/>
			<path class="st0" d="M45,81.6c0-1.4,0.1-2.6,0.1-3.6v-6c0-1.8-0.1-3-0.1-3.8l-0.1-1h3.3v5.7l0.1,6.8l0.1,1.9
				C48.4,81.6,45,81.6,45,81.6z M48.4,73.9l2.2-2.9l2-2.8c0.1-0.2,0.4-0.6,0.7-1.1H57l-4.5,5.7l-0.8,1l0.7,0.9
				c0.1,0.1,0.8,1,2.2,2.7l3.3,4H54l-0.7-1.1c-0.1-0.2-0.4-0.5-0.7-1l-3.1-4.1L48.4,73.9z"/>
			<path class="st0" d="M64.4,70.7c0.8,0,1.6,0.1,2.3,0.4c0.7,0.2,1.4,0.6,1.9,1.1c0.5,0.5,1,1.1,1.3,1.7c0.3,0.7,0.5,1.4,0.5,2.2
				c0,0.8-0.1,1.6-0.3,2.3c-0.2,0.7-0.6,1.4-1.1,1.9c-0.5,0.5-1.2,0.9-1.9,1.2c-0.8,0.3-1.6,0.4-2.5,0.4c-0.8,0-1.6-0.1-2.3-0.4
				c-0.7-0.2-1.4-0.6-1.9-1.1c-0.5-0.5-1-1.1-1.3-1.8c-0.3-0.7-0.5-1.4-0.5-2.2c-0.1-0.7,0-1.5,0.3-2.2c0.2-0.7,0.6-1.4,1.1-1.9
				c0.5-0.6,1.2-1,1.9-1.3C62.7,70.7,63.6,70.6,64.4,70.7z M64.5,72.9c-0.6,0-1.1,0.1-1.6,0.4c-0.5,0.3-0.8,0.8-1,1.3
				c-0.2,0.6-0.3,1.3-0.3,1.9c0,0.6,0.2,1.1,0.4,1.6c0.4,1,1.5,1.7,2.6,1.6c0.6,0,1.1-0.2,1.6-0.5c0.4-0.3,0.8-0.8,1-1.3
				c0.2-0.6,0.3-1.3,0.2-2c0-0.6-0.1-1.1-0.4-1.6c-0.2-0.5-0.5-0.9-1-1.1C65.5,72.9,65,72.8,64.5,72.9z"/>
			<path class="st0" d="M77.7,70.7c0.8,0,1.6,0.1,2.3,0.4c0.7,0.2,1.4,0.6,1.9,1.1c0.5,0.5,1,1.1,1.3,1.7c0.3,0.7,0.5,1.4,0.5,2.2
				c0,0.8-0.1,1.6-0.3,2.3c-0.2,0.7-0.6,1.4-1.1,1.9c-0.5,0.5-1.2,0.9-1.9,1.2c-0.8,0.3-1.6,0.4-2.5,0.4c-0.8,0-1.6-0.1-2.3-0.4
				c-0.7-0.2-1.4-0.6-1.9-1.1c-0.5-0.5-1-1.1-1.3-1.8c-0.3-0.7-0.5-1.4-0.5-2.2c-0.1-0.7,0-1.5,0.3-2.2c0.2-0.7,0.6-1.4,1.1-1.9
				c0.5-0.6,1.2-1,1.9-1.3C76,70.7,76.9,70.6,77.7,70.7z M77.8,72.9c-0.6,0-1.1,0.1-1.6,0.4c-0.5,0.3-0.8,0.8-1,1.3
				c-0.2,0.6-0.3,1.3-0.3,1.9c0,0.6,0.2,1.1,0.4,1.6c0.4,1,1.5,1.7,2.6,1.6c0.6,0,1.1-0.2,1.6-0.5c0.4-0.3,0.8-0.8,1-1.3
				c0.2-0.6,0.3-1.3,0.2-2c0-0.6-0.1-1.1-0.4-1.6c-0.2-0.5-0.5-0.9-1-1.1C78.8,72.9,78.3,72.8,77.8,72.9z"/>
			<path class="st0" d="M85.8,81.6c0-1.2,0.1-3.3,0.1-6.4c0-3.1-0.1-5.7-0.1-8h3.1l-0.1,3.8l0.1,8.6l0.1,2H85.8z"/>
			<path class="st0" d="M91.4,69.1v-2h3.1v2H91.4z M91.5,81.6c0.1-1.1,0.1-1.9,0.1-2.6v-3.9c0-1.5-0.1-2.9-0.1-4.2h3
				c0,1.2-0.1,2.4-0.1,3.5c0,1.1,0,2.4,0.1,3.8c0.1,1.4,0.1,2.6,0.1,3.4H91.5z"/>
			<path class="st0" d="M103.7,79.4c-0.1,0.7-0.2,1.5-0.3,2.2c-0.5,0.1-0.9,0.2-1.4,0.2c-0.3,0-0.6,0.1-0.9,0.1
				c-0.5,0-0.9,0-1.4-0.1c-0.4-0.1-0.7-0.3-1-0.5c-0.3-0.2-0.5-0.5-0.6-0.9c-0.1-0.3-0.2-0.7-0.2-1v-6.3h-1.5v-2H98v-2.1l1.2-0.2
				c0.3,0,0.8-0.2,1.5-0.3c0,0.9,0,1.7,0.1,2.6h2.7v2h-2.8v5c0,0.3,0.1,0.7,0.2,1c0.1,0.2,0.3,0.4,0.5,0.5c0.2,0.1,0.5,0.2,0.7,0.2
				h0.6C103,79.5,103.3,79.4,103.7,79.4z"/>
			<path class="st0" d="M116.1,81.6h-2.8l-0.1-1.7c-0.1,0.2-0.3,0.5-0.5,0.7c-0.1,0.2-0.3,0.4-0.5,0.5c-0.2,0.2-0.5,0.3-0.8,0.4
				l-0.9,0.3c-0.4,0.1-0.7,0.1-1.1,0.1c-0.7,0-1.4-0.1-2.1-0.3c-1.3-0.4-2.1-1.7-2-3v-7.6h3l-0.1,4.8v1.5c0,0.5,0.1,0.9,0.3,1.3
				c0.2,0.3,0.5,0.6,0.8,0.8c0.4,0.2,0.8,0.3,1.2,0.3c0.4,0,0.7-0.1,1.1-0.2c0.3-0.1,0.6-0.3,0.8-0.6c0.2-0.3,0.4-0.6,0.5-1
				c0.1-0.4,0.2-0.9,0.2-1.3v-5.5h3c0,1-0.1,2.3-0.1,3.8v3.7C116,79.4,116,80.4,116.1,81.6z"/>
			<path class="st0" d="M118.4,81.4l-0.4-2.3c0.6,0.3,1.2,0.5,1.8,0.6c0.4,0.1,0.9,0.2,1.3,0.2c0.3,0,0.7,0,1-0.1
				c0.2,0,0.5-0.2,0.6-0.4c0.1-0.2,0.2-0.4,0.2-0.6v-0.3c0-0.1,0-0.1-0.1-0.2c0-0.1-0.1-0.2-0.2-0.2c-0.1-0.1-0.1-0.2-0.3-0.3
				s-0.3-0.2-0.5-0.4l-0.6-0.5c-0.6-0.4-1-0.8-1.3-1c-0.3-0.2-0.6-0.5-0.8-0.8c-0.2-0.2-0.4-0.5-0.5-0.8c-0.1-0.3-0.2-0.6-0.2-0.9
				c0-0.5,0.1-1,0.4-1.5c0.3-0.5,0.8-0.8,1.3-1c0.7-0.2,1.4-0.3,2.1-0.3c1.1,0,2.1,0.1,3.2,0.3l0.2,2.2c-0.8-0.3-1.6-0.5-2.4-0.5
				c-0.4,0-0.7,0-1.1,0.1c-0.2,0-0.5,0.2-0.6,0.4c-0.1,0.2-0.2,0.4-0.2,0.6c0,0.1,0,0.3,0.1,0.4c0,0.1,0.1,0.2,0.2,0.4l0.4,0.4
				c0.1,0.1,0.4,0.3,0.9,0.7l1.2,0.9c0.3,0.2,0.6,0.5,0.8,0.8c0.2,0.3,0.4,0.6,0.5,0.9c0.1,0.3,0.2,0.6,0.2,0.9c0,0.5-0.1,1-0.4,1.5
				c-0.4,0.5-0.9,0.8-1.4,1.1c-0.7,0.3-1.4,0.4-2.2,0.4c-0.5,0-1,0-1.5-0.1C119.6,81.7,119,81.5,118.4,81.4z"/>
		</g>
	</g>
</g>
</svg>
