<?xml version="1.0" encoding="utf-8"?>
<!-- Generator: Adobe Illustrator 21.1.0, SVG Export Plug-In . SVG Version: 6.00 Build 0)  -->
<svg version="1.1" id="Layer_1" xmlns="http://www.w3.org/2000/svg" xmlns:xlink="http://www.w3.org/1999/xlink" x="0px" y="0px"
	 viewBox="0 0 92 37" style="enable-background:new 0 0 92 37;" xml:space="preserve">
<style type="text/css">
	.st0{fill-rule:evenodd;clip-rule:evenodd;fill:#383938;}
	.st1{fill-rule:evenodd;clip-rule:evenodd;fill:#474747;}
</style>
<g>
	<g id="Shape_2">
		<g>
			<path class="st0" d="M32.9,7.6c-8.9,0-10.3,7.4-10.3,7.4l46.7,0V7.6C69.3,7.6,41.8,7.6,32.9,7.6z M32.9,29.7c8.9,0,36.4,0,36.4,0
				v-7.3H22.7C22.7,22.4,24,29.7,32.9,29.7z"/>
		</g>
	</g>
	<g id="Shape_3">
		<g>
			<path class="st1" d="M33.6,0C24.7,0,0,0,0,0v7.4h43.8C43.8,7.4,42.6,0,33.6,0z M0,14.8v7.4h43.8c0,0,0-1.8-2.1-3.7
				c1.9-1.8,2.1-3.8,2.1-3.8H0z M58.4,22.3c12.9,0,33.6,0,33.6,0s-1.3-7.4-10.2-7.4c-8.9,0-33.6,0-33.6,0S49.6,22.3,58.4,22.3z
				 M0,37c0,0,24.7,0,33.6,0c8.9,0,10.1-7.4,10.1-7.4H0V37z M90.6,0c0,0-23.3,0-32.2,0c-8.9,0-10.2,7.4-10.2,7.4h42.3V0z M49.6,37
				c0,0,23.3,0,32.2,0c8.9,0,10.1-7.4,10.1-7.4l-42.3,0V37z"/>
		</g>
	</g>
</g>
</svg>
